<svg width="800" height="220" viewBox="0 0 800 220" xmlns="http://www.w3.org/2000/svg">
  <defs>
    <linearGradient id="bg" x1="0%" y1="0%" x2="100%" y2="100%">
      <stop offset="0%" stop-color="#e0f7fa"/>
      <stop offset="50%" stop-color="#b2ebf2"/>
      <stop offset="100%" stop-color="#80deea"/>
    </linearGradient>
    <linearGradient id="accent" x1="0%" y1="0%" x2="100%" y2="0%">
      <stop offset="0%" stop-color="#0d9488" stop-opacity="0.8"/>
      <stop offset="100%" stop-color="#14b8a6" stop-opacity="0.4"/>
    </linearGradient>
    
  </defs>

  <rect width="800" height="220" fill="url(#bg)" rx="8"/>

  <g opacity="0.04" stroke="#000" stroke-width="0.5">
    <line x1="0" y1="0" x2="0" y2="220"/>
    <line x1="40" y1="0" x2="40" y2="220"/>
    <line x1="80" y1="0" x2="80" y2="220"/>
    <line x1="120" y1="0" x2="120" y2="220"/>
    <line x1="160" y1="0" x2="160" y2="220"/>
    <line x1="200" y1="0" x2="200" y2="220"/>
    <line x1="240" y1="0" x2="240" y2="220"/>
    <line x1="280" y1="0" x2="280" y2="220"/>
    <line x1="320" y1="0" x2="320" y2="220"/>
    <line x1="360" y1="0" x2="360" y2="220"/>
    <line x1="400" y1="0" x2="400" y2="220"/>
    <line x1="440" y1="0" x2="440" y2="220"/>
    <line x1="480" y1="0" x2="480" y2="220"/>
    <line x1="520" y1="0" x2="520" y2="220"/>
    <line x1="560" y1="0" x2="560" y2="220"/>
    <line x1="600" y1="0" x2="600" y2="220"/>
    <line x1="640" y1="0" x2="640" y2="220"/>
    <line x1="680" y1="0" x2="680" y2="220"/>
    <line x1="720" y1="0" x2="720" y2="220"/>
    <line x1="760" y1="0" x2="760" y2="220"/>
    <line x1="0" y1="0" x2="800" y2="0"/>
    <line x1="0" y1="40" x2="800" y2="40"/>
    <line x1="0" y1="80" x2="800" y2="80"/>
    <line x1="0" y1="120" x2="800" y2="120"/>
    <line x1="0" y1="160" x2="800" y2="160"/>
    <line x1="0" y1="200" x2="800" y2="200"/>
  </g>

  <rect x="60" y="155" width="120" height="2" fill="url(#accent)" rx="1"/>

  <text x="60" y="80" font-family="'Segoe UI', system-ui, -apple-system, sans-serif" font-size="38" font-weight="700" fill="#1a202c">
    Hieu Dinh
  </text>

  <text x="60" y="115" font-family="'Segoe UI', system-ui, -apple-system, sans-serif" font-size="16" fill="#4a5568" letter-spacing="0.5">
    Building with AI &amp; shipping things that matter
  </text>

  <text x="60" y="140" font-family="'Segoe UI', system-ui, -apple-system, sans-serif" font-size="13" fill="#0d9488" letter-spacing="1">
    Full-Stack Engineer  ·  AI Builder  ·  Open Source
  </text>

  <text x="60" y="185" font-family="'SF Mono', 'Fira Code', monospace" font-size="11" fill="#94a3b8">
    last updated Mar 27, 2026 · morning
  </text>

  <g fill="#0d9488" opacity="0.15">
    <circle cx="700" cy="40" r="30"/>
    <circle cx="740" cy="90" r="15"/>
    <circle cx="680" cy="100" r="8"/>
  </g>
</svg>